<svg width="598" height="451" viewBox="0 0 598 451" fill="none" xmlns="http://www.w3.org/2000/svg">
<path opacity="0.1" d="M347.443 86.5692C309.108 85.2098 272.593 72.536 237.729 58.672C202.865 44.808 168.324 29.4418 130.909 22.0946C106.841 17.371 79.3171 16.7045 59.927 29.9126C41.262 42.6075 35.2344 64.5805 31.9957 84.9242C29.556 100.264 28.1219 116.371 34.8005 130.716C39.4416 140.676 47.6813 149.044 53.3808 158.582C73.1995 191.774 59.202 232.704 37.7058 265.114C27.6509 280.316 15.9396 294.82 8.16564 311.001C0.391639 327.182 -3.20695 345.727 3.59332 362.236C10.3407 378.602 26.4073 390.889 43.8128 399.532C79.1689 417.094 120.833 422.119 161.46 424.965C251.393 431.265 341.807 428.535 431.978 425.806C465.35 424.79 498.864 423.769 531.696 418.485C549.922 415.549 568.74 410.894 581.97 399.649C598.773 385.367 602.938 361.209 591.676 343.315C572.81 313.307 520.593 305.859 507.395 273.635C500.129 255.904 507.591 236.153 518.149 219.681C540.798 184.405 578.764 153.456 580.764 113.128C582.14 85.432 563.888 57.6934 535.67 44.5911C506.088 30.8382 465.075 32.5838 443.25 55.3184C420.78 78.7671 381.291 87.7753 347.443 86.5692Z" fill="#6C63FF"/>
<path opacity="0.1" d="M359.239 450.995C386.289 450.995 408.217 447.708 408.217 443.653C408.217 439.598 386.289 436.311 359.239 436.311C332.19 436.311 310.261 439.598 310.261 443.653C310.261 447.708 332.19 450.995 359.239 450.995Z" fill="#6C63FF"/>
<path d="M341.056 430.408L246.757 429.202L247.037 426.784L251.594 386.906H334.409L340.5 426.784L340.966 429.805L341.056 430.408Z" fill="#D0D2D5"/>
<path opacity="0.1" d="M340.966 429.805H293.909L246.757 429.202L247.037 426.784H340.5L340.966 429.805Z" fill="black"/>
<path d="M356.17 427.387H231.04V430.408H356.17V427.387Z" fill="#D0D2D5"/>
<path d="M475.553 147.394C475.558 146.361 475.36 145.336 474.97 144.38C474.579 143.423 474.003 142.552 473.276 141.818C472.549 141.084 471.684 140.5 470.731 140.1C469.777 139.699 468.755 139.491 467.721 139.486H118.277C116.189 139.497 114.192 140.337 112.723 141.82C111.254 143.302 110.435 145.308 110.445 147.394V359.115H475.553V147.394Z" fill="#444053"/>
<path d="M110.445 356.999V381.796C110.445 383.873 111.27 385.864 112.739 387.332C114.208 388.8 116.2 389.625 118.277 389.625H467.721C468.749 389.626 469.768 389.424 470.719 389.03C471.669 388.637 472.533 388.061 473.26 387.334C473.988 386.607 474.565 385.743 474.958 384.793C475.351 383.843 475.554 382.825 475.553 381.796V356.999H110.445Z" fill="#D0D2D5"/>
<path d="M462.254 152.779H125.559V343.103H462.254V152.779Z" fill="white"/>
<path d="M294.814 380.22C296.05 380.22 297.27 379.94 298.382 379.4C299.494 378.861 300.469 378.076 301.233 377.105V377.105C301.467 376.808 301.679 376.495 301.868 376.168L297.412 375.428L302.255 375.465C302.719 374.455 302.972 373.36 302.999 372.249C303.025 371.137 302.824 370.032 302.408 369.001L295.915 372.37L301.905 367.969C301.338 367.012 300.581 366.181 299.68 365.528C298.779 364.874 297.755 364.411 296.668 364.168C295.582 363.925 294.458 363.906 293.364 364.113C292.271 364.321 291.231 364.749 290.309 365.373C289.388 365.997 288.603 366.803 288.005 367.741C287.406 368.679 287.006 369.729 286.829 370.827C286.651 371.926 286.701 373.049 286.974 374.127C287.247 375.206 287.737 376.217 288.416 377.099V377.099C289.177 378.069 290.149 378.853 291.257 379.393C292.365 379.934 293.581 380.217 294.814 380.22Z" fill="#6C63FF"/>
<path opacity="0.1" d="M302.974 389.625L340.595 427.387L334.822 389.625H302.974Z" fill="black"/>
<path opacity="0.1" d="M462.354 152.8H125.294V163.919H462.354V152.8Z" fill="#444053"/>
<path d="M136.487 154.736H127.639C127.411 154.736 127.226 154.921 127.226 155.149V161.089C127.226 161.317 127.411 161.501 127.639 161.501H136.487C136.715 161.501 136.9 161.317 136.9 161.089V155.149C136.9 154.921 136.715 154.736 136.487 154.736Z" fill="#6C63FF"/>
<path opacity="0.3" d="M343.569 154.736H242.629C242.46 154.736 242.322 154.873 242.322 155.043V161.195C242.322 161.364 242.46 161.501 242.629 161.501H343.569C343.739 161.501 343.876 161.364 343.876 161.195V155.043C343.876 154.873 343.739 154.736 343.569 154.736Z" fill="#6C63FF"/>
<path d="M340.86 158.814H340.611L340.521 158.74C340.829 158.37 340.999 157.905 341.003 157.423C341.001 157.027 340.881 156.64 340.659 156.311C340.437 155.983 340.122 155.727 339.755 155.578C339.388 155.428 338.984 155.39 338.596 155.47C338.207 155.549 337.851 155.742 337.571 156.024C337.292 156.306 337.103 156.664 337.028 157.053C336.953 157.442 336.995 157.845 337.148 158.211C337.302 158.576 337.561 158.888 337.892 159.106C338.223 159.325 338.611 159.441 339.008 159.438C339.487 159.431 339.95 159.262 340.32 158.957L340.41 159.031V159.28L341.961 160.83L342.421 160.364L340.86 158.814ZM339.008 158.814C338.731 158.815 338.46 158.734 338.23 158.581C337.999 158.428 337.819 158.21 337.713 157.955C337.606 157.699 337.578 157.418 337.632 157.147C337.686 156.875 337.819 156.626 338.015 156.43C338.21 156.235 338.46 156.102 338.731 156.048C339.003 155.994 339.284 156.022 339.54 156.129C339.795 156.235 340.013 156.415 340.166 156.645C340.319 156.876 340.401 157.146 340.4 157.423C340.401 157.606 340.366 157.788 340.297 157.957C340.227 158.127 340.125 158.281 339.995 158.41C339.866 158.539 339.712 158.642 339.542 158.711C339.373 158.781 339.191 158.816 339.008 158.814V158.814Z" fill="#444053"/>
<path d="M457.518 161.501C459.388 161.501 460.905 159.986 460.905 158.116C460.905 156.246 459.388 154.731 457.518 154.731C455.647 154.731 454.131 156.246 454.131 158.116C454.131 159.986 455.647 161.501 457.518 161.501Z" fill="#6C63FF"/>
<path opacity="0.1" d="M371.019 206.32H216.698C211.353 206.32 207.019 210.361 207.019 215.344V300.252C207.019 305.235 211.353 309.276 216.698 309.276H371.019C376.364 309.276 380.698 305.235 380.698 300.252V215.344C380.698 210.361 376.364 206.32 371.019 206.32Z" fill="black"/>
<path d="M365.018 201.485H222.8C217.343 201.485 212.92 205.907 212.92 211.361V294.566C212.92 300.02 217.343 304.442 222.8 304.442H365.018C370.475 304.442 374.898 300.02 374.898 294.566V211.361C374.898 205.907 370.475 201.485 365.018 201.485Z" fill="#454B69"/>
<path opacity="0.3" d="M253.145 259.396H232.474C231.071 259.396 229.934 260.532 229.934 261.935V265.59C229.934 266.992 231.071 268.129 232.474 268.129H253.145C254.547 268.129 255.685 266.992 255.685 265.59V261.935C255.685 260.532 254.547 259.396 253.145 259.396Z" fill="#6C63FF"/>
<path opacity="0.3" d="M287.633 259.396H266.962C265.559 259.396 264.422 260.532 264.422 261.935V265.59C264.422 266.992 265.559 268.129 266.962 268.129H287.633C289.036 268.129 290.173 266.992 290.173 265.59V261.935C290.173 260.532 289.036 259.396 287.633 259.396Z" fill="#6C63FF"/>
<path opacity="0.3" d="M298.667 277.322H281.214C279.811 277.322 278.673 278.459 278.673 279.861V281.215C278.673 282.617 279.811 283.754 281.214 283.754H298.667C300.07 283.754 301.207 282.617 301.207 281.215V279.861C301.207 278.459 300.07 277.322 298.667 277.322Z" fill="#6C63FF"/>
<path opacity="0.3" d="M322.121 259.396H301.45C300.047 259.396 298.91 260.532 298.91 261.935V265.59C298.91 266.992 300.047 268.129 301.45 268.129H322.121C323.524 268.129 324.661 266.992 324.661 265.59V261.935C324.661 260.532 323.524 259.396 322.121 259.396Z" fill="#6C63FF"/>
<path opacity="0.3" d="M356.609 259.396H335.938C334.535 259.396 333.398 260.532 333.398 261.935V265.59C333.398 266.992 334.535 268.129 335.938 268.129H356.609C358.012 268.129 359.149 266.992 359.149 265.59V261.935C359.149 260.532 358.012 259.396 356.609 259.396Z" fill="#6C63FF"/>
<path d="M248.144 238.713H233.792C232.929 238.713 232.23 239.412 232.23 240.274V254.619C232.23 255.481 232.929 256.18 233.792 256.18H248.144C249.006 256.18 249.705 255.481 249.705 254.619V240.274C249.705 239.412 249.006 238.713 248.144 238.713Z" fill="#6C63FF"/>
<path d="M243.841 250.319H238.327V244.807H243.841V250.319ZM238.549 250.091H243.608V245.034H238.549V250.091Z" fill="#454B69"/>
<path d="M241.195 238.713H240.968V244.918H241.195V238.713Z" fill="#454B69"/>
<path d="M241.195 250.202H240.968V256.18H241.195V250.202Z" fill="#454B69"/>
<path d="M238.438 247.33H232.23V247.558H238.438V247.33Z" fill="#454B69"/>
<path d="M249.71 247.33H243.73V247.558H249.71V247.33Z" fill="#454B69"/>
<path d="M238.359 245.003L236.554 243.21H232.23V242.977H236.649L238.523 244.839L238.359 245.003Z" fill="#454B69"/>
<path d="M243.804 245.003L243.651 244.833L245.752 242.977H249.705V243.21H245.841L243.804 245.003Z" fill="#454B69"/>
<path d="M236.655 252.44H232.23V252.207H236.549L238.353 250.128L238.528 250.282L236.655 252.44Z" fill="#454B69"/>
<path d="M249.705 252.44H245.746L243.645 250.287L243.809 250.123L245.847 252.207H249.705V252.44Z" fill="#454B69"/>
<path d="M276.62 209.414H231.987C230.789 209.414 229.817 210.385 229.817 211.583V215.979C229.817 217.177 230.789 218.147 231.987 218.147H276.62C277.818 218.147 278.79 217.177 278.79 215.979V211.583C278.79 210.385 277.818 209.414 276.62 209.414Z" fill="#6C63FF"/>
<path d="M383.032 345.409C383.001 344.5 382.889 343.59 382.778 342.685C382.371 339.289 381.953 335.893 381.291 332.545C381.174 331.892 380.997 331.251 380.762 330.63C380.524 330.043 380.196 329.504 379.947 328.922C379.949 328.901 379.949 328.879 379.947 328.858C380.254 328.71 380.556 328.562 380.852 328.403C381.066 328.295 381.271 328.169 381.466 328.028C381.661 327.887 381.825 327.707 381.947 327.499C382.477 326.568 381.884 325.383 381.614 324.325C381.328 323.188 381.392 321.823 380.556 321.061C377.571 318.417 379.053 313.021 377.56 309.234C377.296 308.573 376.994 307.922 376.767 307.245C376.592 306.716 376.47 306.187 376.343 305.658C375.285 301.25 374.17 296.862 372.999 292.493C371.766 287.965 371.898 283.246 370.353 278.824C370.061 277.908 369.68 277.022 369.215 276.179C368.697 275.302 367.997 274.546 367.161 273.963C364.907 272.408 362.637 271.08 359.991 270.514C357.345 269.948 354.487 270.038 351.788 270.049C350.821 268.709 349.492 267.672 347.957 267.06L347.909 266.923C347.693 266.387 347.527 265.833 347.412 265.267C347.325 264.707 347.281 264.141 347.279 263.574C347.279 262.966 347.253 262.352 347.237 261.744L347.385 261.601C347.739 261.228 348.065 260.828 348.359 260.406C348.642 260.007 348.89 259.584 349.1 259.142C349.337 258.64 349.539 258.122 349.703 257.592C350.025 256.52 350.243 255.42 350.354 254.307C350.497 253 350.539 251.662 350.576 250.356C350.576 250.091 350.576 249.827 350.576 249.557V249.361C350.576 249.15 350.576 248.943 350.576 248.737V248.668C350.62 247.317 350.279 245.982 349.592 244.818C348.634 243.389 346.993 242.702 345.411 242.13C342.236 241.03 338.748 240.306 335.61 241.485C333.118 242.427 331.128 244.479 328.667 245.521C328.724 245.615 328.775 245.712 328.821 245.812C328.822 245.826 328.822 245.84 328.821 245.854C328.863 245.949 328.9 246.039 328.932 246.135C329.012 246.349 329.07 246.57 329.106 246.796V246.796C329.178 247.223 329.178 247.659 329.106 248.086C328.363 248.419 327.543 248.54 326.736 248.436C327.04 249.432 327.548 250.354 328.228 251.144C328.445 251.419 328.672 251.673 328.889 251.964L329.223 252.376C329.79 253.041 330.252 253.788 330.593 254.593C330.719 254.911 330.806 255.243 330.853 255.582C330.953 256.254 330.927 257.026 331.017 257.698C331.051 257.987 331.124 258.269 331.234 258.539C331.436 259.932 331.968 261.258 332.785 262.405C333.603 263.552 334.682 264.488 335.933 265.135C336.277 267.226 336.277 269.359 335.933 271.451C335.933 271.567 335.891 271.683 335.864 271.8C334.425 273.614 333.044 275.529 331.271 276.946C330.464 277.578 329.602 278.134 328.694 278.607C328.16 278.915 327.589 279.151 326.995 279.311C326.328 279.464 325.63 279.443 324.968 279.607C323.69 280.013 322.614 280.888 321.957 282.056C321.622 282.674 321.251 283.271 320.846 283.844C320.475 284.304 320.009 284.68 319.618 285.119C318.2 286.706 317.813 289.001 317.501 291.149C316.398 292.367 315.188 293.484 313.887 294.487C313.479 294.811 313.026 295.073 312.542 295.264C311.293 295.682 309.923 295.148 308.838 294.344C307.753 293.54 306.906 292.482 305.858 291.657L305.583 292.064C305.505 291.987 305.432 291.904 305.366 291.815C304.937 291.211 304.639 290.522 304.493 289.795C304.112 287.843 304.832 285.754 304.271 283.855C304.064 283.167 303.567 282.458 302.879 282.474C302.191 282.49 301.762 283.178 301.17 283.5C300.217 284.029 299.053 283.548 298.111 283.024C297.169 282.5 296.095 281.913 295.063 282.225C295.043 282.566 295.104 282.907 295.241 283.219C295.378 283.532 295.587 283.808 295.851 284.024C296.383 284.444 296.819 284.973 297.132 285.574C297.286 286.23 297.345 286.905 297.307 287.578C297.412 289.123 298.365 290.451 299.286 291.657C300.429 293.12 301.625 294.541 302.874 295.92C302.724 296.183 302.489 296.386 302.207 296.497C302.136 296.747 302.136 297.013 302.207 297.264C302.259 297.437 302.327 297.605 302.408 297.766C302.53 298.015 302.678 298.258 302.805 298.486L304.662 301.749L304.964 302.278C305.091 302.5 305.218 302.712 305.35 302.929C305.788 303.689 306.308 304.398 306.901 305.045C307.197 305.355 307.523 305.635 307.875 305.88C308.104 306.045 308.346 306.19 308.6 306.314C308.954 306.495 309.331 306.625 309.722 306.7C309.913 306.741 310.108 306.766 310.304 306.774C310.506 306.79 310.71 306.79 310.912 306.774C311.522 306.689 312.121 306.535 312.696 306.314C316.236 305.071 319.485 303.088 322.851 301.4C323.314 301.141 323.811 300.949 324.328 300.829C324.502 300.795 324.679 300.781 324.857 300.787C325.037 300.792 325.215 300.822 325.386 300.876C325.555 300.933 325.716 301.013 325.862 301.115C326.159 301.314 326.366 301.622 326.439 301.971C326.54 302.5 326.635 302.992 326.73 303.5C326.826 304.008 326.931 304.516 327.037 305.024C327.249 306.034 327.476 307.044 327.741 308.044C327.884 308.573 328.022 309.134 328.159 309.684C328.498 311.027 328.831 312.381 329.138 313.735C329.233 314.159 329.323 314.587 329.408 315.01C329.566 315.763 329.679 316.524 329.747 317.29C329.749 317.308 329.749 317.325 329.747 317.343C329.8 318.009 329.805 318.671 329.81 319.337V321.426L329.863 327.594C329.863 328.483 329.387 329.038 329.011 329.837C328.937 330.001 328.868 330.17 328.81 330.339C328.739 330.554 328.681 330.773 328.635 330.995C328.635 331.064 328.604 331.138 328.593 331.207C328.582 331.276 328.593 331.371 328.561 331.45C328.53 331.53 328.561 331.609 328.535 331.683C328.508 331.757 328.535 331.842 328.535 331.916C328.535 331.99 328.535 332.085 328.535 332.17C328.535 332.254 328.535 332.318 328.535 332.386C328.535 332.455 328.535 332.572 328.535 332.662C328.535 332.751 328.535 332.794 328.535 332.857C328.535 332.921 328.572 333.064 328.588 333.169L328.62 333.328C328.657 333.481 328.694 333.635 328.747 333.788C328.852 334.106 328.985 334.418 329.122 334.724C329.26 335.031 329.397 335.343 329.514 335.661C329.588 335.862 329.651 336.067 329.704 336.274C329.718 336.321 329.728 336.369 329.736 336.417C329.779 336.581 329.816 336.745 329.847 336.914V337.031C329.879 337.211 329.906 337.396 329.927 337.56C329.929 337.581 329.929 337.602 329.927 337.623C329.927 337.829 329.969 338.036 329.98 338.242C330.027 338.993 330.017 339.76 329.98 340.517L329.916 344.283V344.399C329.91 344.517 329.936 344.633 329.99 344.738C330.028 344.797 330.081 344.846 330.143 344.879C330.205 344.912 330.274 344.929 330.345 344.928C330.613 344.909 330.869 344.809 331.08 344.642L332.763 343.421H332.869C331.541 345.595 330.477 347.991 330.271 350.546C330.191 352.233 330.299 353.923 330.593 355.587C332.144 366.695 335.796 377.903 335.028 389.117C334.727 393.534 336.558 397.84 336.547 402.262C336.547 403.981 336.256 405.684 336.182 407.398C335.859 414.761 339.616 422.209 338.087 429.403C338.616 431.191 340.622 432.143 341.188 433.92C341.664 435.428 340.976 437.03 340.421 438.506C340.221 439.02 340.067 439.551 339.96 440.093C338.42 440.093 336.711 440.125 335.684 440.553C335.4 440.646 335.122 440.759 334.854 440.892C333.906 441.458 333.843 443.007 334.441 443.944C335.039 444.88 338.399 447.869 339.384 448.361L341.537 449.418C342.693 450.071 343.943 450.542 345.242 450.815C346.335 450.936 347.44 450.915 348.528 450.751C349.37 450.661 350.301 450.524 350.846 449.836C351.613 448.863 351.222 447.281 350.698 445.874C350.892 445.72 351.041 445.518 351.132 445.287C351.225 444.919 351.273 444.541 351.275 444.161C351.43 443.425 351.683 442.714 352.026 442.045C352.91 439.892 352.873 437.469 352.82 435.126C352.83 431.316 352.568 427.51 352.037 423.738C351.772 422.151 351.412 420.564 351.105 418.977C349.976 413.23 349.492 407.375 349.661 401.521C349.68 400.1 349.482 398.683 349.073 397.321C348.9 396.535 348.853 395.726 348.936 394.925L349.571 385.24C349.751 383.27 349.781 381.29 349.661 379.316C349.571 378.258 349.396 377.2 349.29 376.142C349.13 374.125 349.096 372.101 349.19 370.08C349.248 367.906 349.348 365.573 350.592 363.828C350.655 363.716 350.741 363.617 350.842 363.538C350.944 363.459 351.06 363.401 351.185 363.368C351.439 363.331 351.513 363.674 351.418 363.897C351.55 364.299 351.688 364.695 351.825 365.097C351.867 365.214 351.904 365.325 351.947 365.436C352.016 365.642 352.09 365.848 352.164 366.055C352.238 366.261 352.27 366.34 352.317 366.483L352.524 367.012C352.582 367.171 352.645 367.324 352.704 367.478C352.762 367.631 352.836 367.811 352.905 367.975C352.973 368.139 353.042 368.303 353.116 368.467C353.19 368.631 353.243 368.768 353.312 368.922L353.566 369.451C353.63 369.583 353.693 369.72 353.762 369.853C353.831 369.985 353.968 370.239 354.074 370.429C354.132 370.54 354.191 370.651 354.254 370.757C354.423 371.053 354.598 371.339 354.783 371.625C355.143 372.154 355.53 372.683 355.842 373.248C355.952 373.435 356.051 373.627 356.138 373.825C356.431 374.556 356.663 375.309 356.831 376.078C357.017 376.777 357.234 377.459 357.472 378.131C357.71 378.803 358.001 379.474 358.26 380.13C358.403 380.458 358.551 380.786 358.699 381.109C359.144 382.087 359.626 383.05 360.112 384.002C360.198 384.171 360.265 384.348 360.314 384.531C360.338 384.62 360.357 384.71 360.372 384.801C360.391 384.977 360.391 385.154 360.372 385.33C360.366 385.44 360.352 385.55 360.329 385.658C360.298 385.821 360.25 385.98 360.187 386.134C359.536 387.62 360.06 389.086 360.345 390.545C360.595 392.084 360.716 393.641 360.705 395.2C360.705 395.729 360.705 396.258 360.753 396.75C360.753 397.395 360.753 398.035 360.79 398.681C360.827 399.326 360.79 400.067 360.827 400.76C360.839 401.454 360.81 402.148 360.742 402.838C360.742 403.082 360.679 403.32 360.642 403.558C360.525 404.272 360.361 404.981 360.218 405.674C359.69 408.463 359.445 411.298 359.488 414.137C359.488 415.276 359.525 416.417 359.599 417.559C359.663 418.707 359.753 419.85 359.853 420.998C359.906 421.627 359.97 422.256 360.033 422.886C360.139 423.976 360.255 425.065 360.372 426.155C360.488 427.245 360.615 428.445 360.726 429.583C360.837 430.72 360.938 431.857 361.017 432.989C361.067 433.55 360.949 434.113 360.679 434.608C360.572 434.804 360.483 435.009 360.414 435.221C360.365 435.368 360.326 435.518 360.298 435.671C360.267 435.846 360.245 436.022 360.234 436.2C360.221 436.571 360.242 436.943 360.298 437.311C360.326 437.494 360.358 437.67 360.393 437.84C360.472 438.205 360.568 438.569 360.663 438.929C360.881 439.926 361.237 440.887 361.721 441.786C361.824 441.97 361.941 442.147 362.071 442.315C362.108 442.367 362.15 442.415 362.192 442.468C362.302 442.595 362.402 442.729 362.494 442.87C362.537 442.935 362.574 443.004 362.605 443.076C362.714 443.369 362.736 443.687 362.669 443.991C362.61 444.309 362.499 444.626 362.414 444.928L362.69 444.965C362.303 446.187 362.123 447.44 362.774 448.26C363.304 448.948 364.251 449.085 365.092 449.175C366.18 449.343 367.285 449.366 368.379 449.244C369.678 448.971 370.927 448.5 372.083 447.847L374.237 446.789C375.221 446.298 378.576 443.33 379.174 442.367C379.772 441.405 379.704 439.887 378.767 439.321C378.499 439.185 378.221 439.07 377.936 438.977C376.983 438.58 375.443 438.543 374.004 438.522C373.93 437.993 373.888 437.416 373.866 436.872C373.77 434.847 373.809 432.818 373.983 430.799C374.105 429.366 374.29 427.937 374.274 426.504C374.274 424.589 373.877 422.695 373.671 420.791C373.464 418.887 373.443 417.025 373.411 415.142C373.364 412.37 374.179 409.731 374.533 406.991L375.152 402.172C375.256 401.587 375.271 400.989 375.195 400.4C375.099 399.871 374.856 399.342 374.756 398.813C374.539 397.612 375.084 396.422 375.253 395.211C375.449 393.82 375.147 392.407 374.951 391.011C374.695 388.806 374.573 386.587 374.586 384.367C374.396 370.72 374.009 356.766 369.395 343.997C369.209 343.468 369.008 342.939 368.802 342.447C368.895 342.422 368.987 342.392 369.077 342.357C369.221 342.304 369.358 342.233 369.485 342.146C369.541 342.112 369.594 342.073 369.643 342.029C369.791 341.883 369.898 341.7 369.956 341.5C370.018 341.307 370.05 341.106 370.051 340.903C370.044 340.545 369.993 340.19 369.897 339.845L369.834 339.628C369.728 339.268 369.612 338.914 369.49 338.57C369.374 338.226 369.247 337.893 369.114 337.554C368.838 336.927 368.615 336.278 368.447 335.613C368.125 334.111 368.447 332.376 367.542 331.154C365.542 328.414 366.955 324.204 366.119 320.866C365.844 319.808 365.442 318.75 365.188 317.692C365.029 317.015 364.928 316.322 364.828 315.629C364.563 314.131 364.432 312.612 364.436 311.091C364.436 310.329 364.552 309.567 364.642 308.811L365.277 303.564C365.987 304.921 366.493 306.375 366.78 307.88C366.828 308.097 366.87 308.308 366.918 308.525C367.49 311.113 368.197 313.67 369.035 316.185C369.516 317.703 369.993 319.215 370.511 320.718C370.665 321.146 370.813 321.58 370.951 322.019C371.086 322.458 371.192 322.905 371.268 323.357C371.326 323.717 371.353 324.087 371.379 324.452C371.406 324.817 371.427 325.193 371.464 325.558C371.637 327.12 372.162 328.623 372.999 329.953C373.025 329.987 373.05 330.023 373.073 330.059C373.215 330.316 373.444 330.515 373.718 330.62V330.62C373.909 330.659 374.105 330.659 374.295 330.62H374.327C374.607 330.562 374.888 330.498 375.163 330.429C375.204 330.421 375.245 330.411 375.285 330.398C375.412 332.037 375.899 333.672 375.941 335.328C375.994 337.734 375.11 340.041 374.549 342.373C374.077 344.502 373.76 346.662 373.602 348.837C373.529 349.268 373.557 349.709 373.681 350.128C373.742 350.331 373.871 350.507 374.046 350.625C374.222 350.744 374.433 350.798 374.644 350.778C374.793 350.728 374.931 350.649 375.048 350.544C375.165 350.439 375.26 350.312 375.327 350.17C375.957 349.124 376.166 347.879 375.914 346.684C376.417 346.79 376.677 347.367 376.798 347.89C377.12 349.248 377.043 350.67 376.576 351.984C376.264 352.862 375.782 353.672 375.518 354.576C375.422 354.858 375.422 355.162 375.518 355.444C375.782 356.052 376.618 356.01 377.222 355.788C379.193 354.984 380.795 353.476 381.715 351.556C382.651 349.646 383.104 347.535 383.032 345.409V345.409Z" fill="url(#paint0_linear)"/>
<path d="M352.158 449.884C351.592 450.566 350.624 450.704 349.745 450.794C348.611 450.957 347.461 450.979 346.321 450.857C344.978 450.586 343.682 450.119 342.474 449.471L340.23 448.413C339.209 447.921 335.716 444.97 335.092 444.012C334.467 443.055 334.531 441.548 335.515 440.982C335.796 440.849 336.086 440.736 336.383 440.643C338.034 439.987 341.379 440.32 343.136 440.066C344.007 440.026 344.872 440.229 345.633 440.654C347.369 441.421 350.428 442.029 351.185 443.981C351.772 445.483 353.381 448.398 352.158 449.884Z" fill="#2F2E41"/>
<path d="M364.621 448.435C365.187 449.117 366.156 449.254 367.034 449.344C369.537 449.812 372.125 449.339 374.3 448.017L376.544 446.959C377.571 446.467 381.064 443.515 381.688 442.558C382.313 441.6 382.249 440.088 381.259 439.527C380.981 439.391 380.693 439.278 380.397 439.188C378.746 438.532 375.401 438.866 373.644 438.612C372.771 438.569 371.904 438.773 371.141 439.199C369.411 439.966 366.378 440.574 365.595 442.526C364.992 444.034 363.378 446.948 364.621 448.435Z" fill="#2F2E41"/>
<path d="M370.077 341.479C370.618 342.519 371.09 343.594 371.49 344.695C376.295 357.39 376.698 371.281 376.899 384.859C376.881 387.067 377.006 389.274 377.275 391.466C377.476 392.857 377.804 394.259 377.587 395.65C377.412 396.851 376.846 398.035 377.058 399.226C377.158 399.755 377.412 400.284 377.513 400.812C377.592 401.398 377.576 401.993 377.465 402.574L376.825 407.366C376.454 410.096 375.608 412.719 375.655 415.475C375.687 417.353 375.719 419.231 375.925 421.098C376.232 422.98 376.442 424.876 376.555 426.779C376.555 428.207 376.375 429.63 376.248 431.053C376.07 433.061 376.029 435.08 376.126 437.094C376.2 438.644 376.38 440.267 377.185 441.574C376.258 442.896 375.348 444.081 373.872 444.748C370.871 446.06 367.426 445.615 364.182 445.144C364.362 444.547 364.637 443.87 364.378 443.298C364.228 443.022 364.041 442.768 363.822 442.542C363.116 441.535 362.625 440.393 362.377 439.188C361.986 437.755 361.594 436.216 362.377 434.846C362.653 434.364 362.776 433.811 362.732 433.259C362.06 424.266 360.054 414.936 361.901 406.097C362.097 405.155 362.33 404.214 362.43 403.256C362.53 401.88 362.548 400.498 362.483 399.12L362.504 397.147C362.409 395.1 362.504 393 362.081 390.974C361.79 389.525 361.24 388.065 361.917 386.584C362.063 386.247 362.13 385.881 362.112 385.514C362.095 385.147 361.994 384.789 361.816 384.468C360.391 381.972 359.244 379.327 358.398 376.581C358.223 375.814 357.982 375.064 357.678 374.338C357.266 373.572 356.792 372.842 356.26 372.154C354.672 369.821 353.688 367.118 352.746 364.452C352.846 364.203 352.746 363.865 352.508 363.923C352.379 363.955 352.258 364.012 352.152 364.091C352.045 364.17 351.956 364.269 351.889 364.383C350.597 366.118 350.486 368.435 350.428 370.604C350.331 372.614 350.366 374.628 350.534 376.634C350.64 377.692 350.825 378.75 350.92 379.808C351.044 381.771 351.013 383.742 350.825 385.7L350.174 395.295C350.081 396.093 350.128 396.9 350.312 397.681C350.736 399.031 350.943 400.44 350.925 401.855C350.759 407.674 351.27 413.493 352.45 419.194C352.767 420.781 353.143 422.336 353.418 423.917C353.967 427.669 354.24 431.456 354.233 435.248C354.291 437.58 354.328 440.008 353.407 442.124C353.046 442.788 352.782 443.501 352.624 444.24C352.624 444.619 352.574 444.996 352.476 445.361C352.206 446.054 351.418 446.35 350.671 446.509C349.304 446.806 347.902 446.905 346.507 446.805C346.18 446.802 345.857 446.73 345.559 446.594C345.03 446.324 344.766 445.753 344.369 445.324C343.517 444.393 342.098 444.108 341.32 443.113C340.347 441.865 340.754 440.061 341.32 438.591C341.887 437.12 342.612 435.528 342.114 434.026C341.527 432.264 339.468 431.312 338.886 429.535C340.474 422.373 336.568 414.967 336.902 407.641C336.981 405.933 337.277 404.24 337.283 402.532C337.283 398.131 335.393 393.846 335.695 389.456C336.494 378.3 332.689 367.16 331.08 356.089C330.773 354.438 330.659 352.757 330.742 351.08C330.98 348.308 332.266 345.732 333.811 343.421C334.922 341.765 336.256 340.141 338.092 339.369C339.606 338.729 341.299 338.734 342.94 338.745C347.036 338.776 351.132 338.808 355.228 338.882C358.016 338.842 360.8 339.09 363.536 339.623C365.754 340.125 367.828 341.157 370.077 341.479Z" fill="#2F2E41"/>
<g opacity="0.1">
<path opacity="0.1" d="M353.18 364.351C353.317 364.122 353.54 363.957 353.799 363.891C354.064 363.854 354.143 364.193 354.042 364.42C354.984 367.065 355.948 369.789 357.551 372.122C358.086 372.809 358.563 373.539 358.975 374.306C359.276 375.033 359.517 375.783 359.694 376.549C360.541 379.295 361.686 381.939 363.108 384.436C363.286 384.757 363.388 385.115 363.405 385.482C363.423 385.849 363.355 386.215 363.208 386.552C362.531 388.033 363.081 389.493 363.378 390.942C363.785 392.968 363.706 395.068 363.801 397.115C363.801 397.755 363.801 398.395 363.838 399.035C363.907 400.414 363.891 401.795 363.79 403.172C363.679 404.129 363.446 405.071 363.261 406.012C361.42 414.851 363.42 424.166 364.092 433.174C364.138 433.726 364.017 434.279 363.743 434.761C362.938 436.131 363.33 437.67 363.743 439.104C363.986 440.31 364.478 441.452 365.187 442.457C365.393 442.687 365.571 442.941 365.717 443.214C365.976 443.785 365.717 444.462 365.516 445.06C366.949 445.29 368.394 445.444 369.844 445.52C367.963 445.536 366.084 445.382 364.23 445.06C364.41 444.462 364.685 443.785 364.425 443.214C364.275 442.938 364.088 442.683 363.87 442.457C363.164 441.45 362.672 440.309 362.425 439.104C362.033 437.67 361.642 436.131 362.425 434.761C362.701 434.28 362.824 433.727 362.78 433.174C362.108 424.182 360.102 414.851 361.949 406.012C362.145 405.071 362.377 404.129 362.478 403.172C362.578 401.795 362.595 400.414 362.531 399.035C362.531 398.395 362.504 397.755 362.489 397.115C362.393 395.068 362.489 392.968 362.065 390.942C361.774 389.493 361.224 388.033 361.901 386.552C362.047 386.215 362.114 385.849 362.096 385.482C362.079 385.116 361.978 384.758 361.801 384.436C360.375 381.94 359.228 379.296 358.382 376.549C358.205 375.783 357.964 375.033 357.662 374.306C357.25 373.541 356.776 372.81 356.244 372.122C354.709 369.895 353.762 367.335 352.862 364.785C352.979 364.653 353.074 364.5 353.18 364.351Z" fill="black"/>
</g>
<path d="M303.9 290.62C303.504 288.679 304.255 286.6 303.668 284.712C303.456 284.029 302.937 283.32 302.223 283.336C301.508 283.352 301.059 284.035 300.445 284.357C299.455 284.886 298.249 284.405 297.27 283.886C296.29 283.368 295.153 282.776 294.094 283.088C293.967 283.765 294.422 284.405 294.92 284.876C295.465 285.292 295.918 285.818 296.248 286.42C296.497 287.044 296.38 287.742 296.433 288.414C296.545 289.948 297.492 291.276 298.492 292.471C300.06 294.398 301.725 296.243 303.482 297.999C303.482 297.999 306.128 294.698 306.091 294.122C306.054 293.545 305.149 293.064 304.821 292.63C304.37 292.036 304.055 291.35 303.9 290.62V290.62Z" fill="#A1616A"/>
<path d="M383.313 331.244C383.55 331.86 383.727 332.498 383.842 333.148C384.53 336.481 384.964 339.861 385.393 343.235C385.504 344.135 385.62 345.039 385.652 345.944C385.775 348.099 385.332 350.249 384.366 352.18C383.39 354.123 381.724 355.633 379.693 356.412C379.069 356.634 378.195 356.676 377.92 356.073C377.822 355.794 377.822 355.49 377.92 355.211C378.169 354.312 378.672 353.503 378.979 352.63C379.462 351.326 379.543 349.907 379.211 348.557C379.084 348.028 378.815 347.462 378.291 347.356C378.552 348.548 378.331 349.795 377.677 350.826C377.605 350.969 377.505 351.095 377.383 351.199C377.261 351.302 377.12 351.381 376.968 351.429C376.752 351.451 376.535 351.399 376.352 351.282C376.169 351.165 376.032 350.989 375.962 350.784C375.835 350.367 375.808 349.927 375.883 349.498C376.049 347.333 376.378 345.182 376.867 343.066C377.449 340.744 378.375 338.454 378.312 336.057C378.259 333.889 377.396 331.757 377.64 329.604C377.636 329.485 377.672 329.367 377.743 329.271C377.814 329.175 377.916 329.106 378.031 329.075C378.639 328.826 379.263 328.62 379.899 328.456C380.275 328.361 381.556 327.927 381.916 328.118C382.276 328.308 382.297 329.245 382.445 329.572C382.725 330.117 383.069 330.657 383.313 331.244Z" fill="#A1616A"/>
<path d="M340.484 266.976C345.38 266.976 349.348 263.009 349.348 258.116C349.348 253.222 345.38 249.256 340.484 249.256C335.589 249.256 331.62 253.222 331.62 258.116C331.62 263.009 335.589 266.976 340.484 266.976Z" fill="#A1616A"/>
<path d="M348.428 264.527C348.424 265.092 348.468 265.656 348.56 266.214C348.683 266.778 348.86 267.329 349.089 267.859C349.384 268.725 349.801 269.544 350.327 270.292C350.862 271.047 351.664 271.569 352.571 271.752C346.511 274.593 340.04 276.462 333.398 277.29C334.444 276.595 335.314 275.666 335.938 274.577C336.272 273.88 336.499 273.136 336.61 272.371C337.179 269.167 336.892 265.87 335.78 262.813C335.668 262.516 335.563 262.146 335.78 261.898C335.87 261.809 335.978 261.741 336.097 261.697C338.728 260.58 341.57 260.049 344.427 260.141C345.157 260.141 345.887 260.178 346.618 260.231C347.009 260.263 347.872 260.178 348.205 260.464C348.539 260.75 348.391 261.871 348.401 262.331L348.428 264.527Z" fill="#A1616A"/>
<path d="M353.116 270.99C351.812 269.322 349.986 268.137 347.93 267.625C345.874 267.113 343.706 267.303 341.77 268.166C337.537 270.181 335.473 275.042 331.763 277.856C330.919 278.488 330.019 279.042 329.075 279.512C328.517 279.819 327.923 280.053 327.307 280.21C326.614 280.364 325.894 280.342 325.19 280.506C323.875 280.893 322.754 281.762 322.052 282.94C321.706 283.556 321.321 284.15 320.898 284.717C320.512 285.177 320.031 285.553 319.623 285.992C318.147 287.578 317.744 289.853 317.411 291.99C316.255 293.204 314.994 294.314 313.643 295.307C313.219 295.633 312.748 295.894 312.246 296.079C310.949 296.502 309.515 295.968 308.409 295.169C307.303 294.37 306.404 293.318 305.313 292.524C304.313 293.952 303.265 295.391 302.196 296.756C302.037 297.021 301.79 297.223 301.498 297.327C301.297 298.004 301.778 298.702 302.138 299.306L304.07 302.553C304.711 303.734 305.495 304.832 306.404 305.822C307.341 306.797 308.606 307.39 309.955 307.488C310.808 307.481 311.652 307.318 312.447 307.007C316.151 305.769 319.512 303.796 323.031 302.114C323.666 301.753 324.376 301.545 325.106 301.506C325.47 301.498 325.828 301.608 326.124 301.821C326.42 302.034 326.638 302.337 326.746 302.686C327.148 304.717 327.545 306.737 328.096 308.726C328.621 310.609 329.106 312.498 329.551 314.391C329.849 315.554 330.061 316.737 330.186 317.93C330.244 318.607 330.249 319.284 330.26 319.967L330.334 328.176C330.334 329.065 329.837 329.615 329.445 330.408C328.855 331.642 328.766 333.056 329.196 334.354C329.413 334.994 329.757 335.587 330.001 336.221C330.583 337.75 330.562 339.432 330.53 341.067L330.461 344.812C330.441 344.968 330.469 345.126 330.541 345.267C330.768 345.621 331.318 345.415 331.668 345.171L333.398 343.987C335.744 344.31 338.113 344.425 340.479 344.33C347.205 344.235 353.937 344.5 360.647 344.97C362.891 345.129 365.203 345.298 367.32 344.553C368.379 344.172 369.384 343.563 370.495 343.262C370.949 343.188 371.379 343.006 371.75 342.733C372.363 342.167 372.199 341.146 371.951 340.374C371.728 339.676 371.48 338.983 371.199 338.306C370.914 337.682 370.68 337.036 370.501 336.375C370.167 334.883 370.501 333.153 369.564 331.937C367.479 329.213 368.955 325.018 368.077 321.702C367.796 320.644 367.378 319.586 367.114 318.528C366.944 317.851 366.839 317.163 366.738 316.475C366.46 314.986 366.324 313.473 366.331 311.958C366.331 311.202 366.452 310.445 366.548 309.694L367.209 304.468C368.034 306.015 368.609 307.682 368.913 309.409C369.514 311.988 370.256 314.533 371.136 317.031C371.633 318.538 372.131 320.041 372.67 321.538C373.016 322.392 373.28 323.278 373.459 324.182C373.575 324.907 373.581 325.648 373.665 326.372C373.843 327.935 374.387 329.434 375.253 330.747C375.415 331.052 375.682 331.288 376.004 331.413C376.219 331.461 376.441 331.461 376.655 331.413C378.996 330.951 381.261 330.168 383.387 329.086C383.839 328.896 384.231 328.59 384.525 328.197C385.096 327.266 384.456 326.108 384.175 325.05C383.895 323.992 383.948 322.558 383.059 321.802C379.952 319.157 381.471 313.799 379.942 310.033C379.666 309.372 379.349 308.732 379.116 308.054C378.936 307.525 378.804 306.997 378.672 306.468C377.588 302.084 376.428 297.717 375.189 293.365C373.909 288.859 374.046 284.167 372.432 279.766C372.129 278.847 371.734 277.961 371.252 277.121C370.712 276.243 369.99 275.491 369.135 274.915C366.791 273.365 364.431 272.048 361.674 271.488C358.916 270.927 355.921 270.959 353.116 270.99Z" fill="#3F3D56"/>
<path d="M332.43 260.284C331.239 259.644 331.551 257.899 331.371 256.582C330.953 253.826 327.847 252.197 327.138 249.509C327.976 249.614 328.827 249.493 329.604 249.16C329.753 248.268 329.576 247.352 329.106 246.579C331.662 245.521 333.737 243.506 336.33 242.569C339.6 241.39 343.21 242.115 346.533 243.21C348.179 243.738 349.888 244.463 350.883 245.881C351.973 247.441 351.942 249.488 351.899 251.393C351.809 254.376 351.688 257.465 350.359 260.136C348.671 263.537 343.882 266.685 339.923 265.764C338.283 265.383 337.807 264.347 337.103 262.918C336.669 262.03 336.51 260.998 335.515 260.533C334.52 260.067 333.398 260.803 332.43 260.284Z" fill="#3F3D56"/>
<g opacity="0.1">
<path opacity="0.1" d="M330.504 341.696C330.502 341.712 330.502 341.728 330.504 341.744C330.731 342.098 331.281 341.892 331.631 341.649L333.388 340.437C335.733 340.759 338.103 340.872 340.468 340.776C347.195 340.681 353.926 340.945 360.636 341.416C362.88 341.574 365.193 341.744 367.31 340.998C368.368 340.617 369.374 340.014 370.485 339.707C370.869 339.636 371.238 339.504 371.58 339.316C371.707 339.665 371.829 340.014 371.94 340.374C372.189 341.172 372.353 342.167 371.739 342.733C371.369 343.006 370.939 343.188 370.485 343.262C369.384 343.563 368.368 344.172 367.31 344.553C365.193 345.298 362.88 345.129 360.636 344.97C353.926 344.5 347.195 344.235 340.468 344.33C338.106 344.425 335.74 344.31 333.398 343.987L331.641 345.203C331.292 345.446 330.742 345.653 330.514 345.298C330.442 345.158 330.415 345 330.435 344.843C330.459 343.796 330.482 342.747 330.504 341.696Z" fill="black"/>
<path opacity="0.1" d="M368.913 309.398C368.609 307.672 368.034 306.004 367.209 304.458L366.548 309.684C366.505 310.012 366.463 310.34 366.426 310.668C366.341 309.916 366.309 309.16 366.331 308.404C366.331 307.647 366.452 306.891 366.548 306.14L367.209 300.914C368.034 302.46 368.609 304.128 368.913 305.854C369.514 308.433 370.256 310.978 371.136 313.476C371.633 314.984 372.131 316.491 372.67 317.983C373.015 318.838 373.279 319.724 373.459 320.628C373.575 321.352 373.581 322.093 373.665 322.818C373.84 324.381 374.384 325.881 375.253 327.192C375.412 327.498 375.677 327.735 375.999 327.859C376.215 327.897 376.438 327.888 376.65 327.832C378.99 327.37 381.256 326.587 383.382 325.505C383.662 325.367 383.927 325.198 384.17 325.002C384.451 326.06 385.091 327.219 384.519 328.15C384.226 328.542 383.833 328.849 383.382 329.038C381.256 330.12 378.99 330.903 376.65 331.366C376.436 331.413 376.214 331.413 375.999 331.366C375.677 331.242 375.412 331.005 375.253 330.699C374.385 329.387 373.841 327.888 373.665 326.325C373.581 325.6 373.575 324.859 373.459 324.135C373.28 323.23 373.016 322.345 372.67 321.49C372.141 319.993 371.612 318.491 371.136 316.983C370.257 314.497 369.515 311.965 368.913 309.398V309.398Z" fill="black"/>
<path opacity="0.1" d="M368.368 323.802C368.368 324.034 368.368 324.272 368.368 324.51C368.379 324.272 368.373 324.04 368.368 323.802Z" fill="black"/>
<path opacity="0.1" d="M329.985 332.699C330.567 334.227 330.546 335.909 330.514 337.544C330.514 337.972 330.514 338.395 330.514 338.824C330.469 337.942 330.291 337.071 329.985 336.243C329.741 335.608 329.397 335.015 329.181 334.375C328.81 333.255 328.825 332.043 329.223 330.932C329.44 331.535 329.752 332.101 329.985 332.699Z" fill="black"/>
<path opacity="0.1" d="M302.207 296.724L302.509 296.333L304.096 298.978C304.737 300.159 305.52 301.257 306.43 302.247C307.356 303.238 308.618 303.851 309.97 303.966C310.823 303.957 311.667 303.796 312.463 303.49C316.167 302.246 319.528 300.273 323.047 298.591C323.671 298.23 324.37 298.016 325.09 297.967C325.455 297.96 325.812 298.072 326.108 298.286C326.404 298.499 326.622 298.803 326.73 299.152C327.133 301.178 327.529 303.199 328.08 305.188C328.605 307.071 329.091 308.959 329.535 310.853C329.833 312.015 330.046 313.198 330.17 314.391C330.228 315.068 330.234 315.751 330.239 316.428L330.318 324.643C330.319 324.763 330.308 324.884 330.287 325.002L330.239 319.972C330.239 319.29 330.239 318.612 330.17 317.935C330.046 316.742 329.833 315.559 329.535 314.397C329.084 312.503 328.598 310.615 328.08 308.732C327.551 306.743 327.133 304.722 326.73 302.691C326.622 302.343 326.404 302.039 326.108 301.826C325.812 301.614 325.454 301.503 325.09 301.511C324.36 301.55 323.65 301.759 323.015 302.12C319.512 303.802 316.136 305.775 312.431 307.012C311.637 307.323 310.792 307.486 309.939 307.494C308.586 307.379 307.325 306.766 306.398 305.775C305.49 304.784 304.706 303.686 304.065 302.506C303.424 301.421 302.779 300.342 302.133 299.258C301.773 298.655 301.292 297.957 301.493 297.28C301.788 297.183 302.041 296.987 302.207 296.724Z" fill="black"/>
</g>
<g opacity="0.1">
<path opacity="0.1" d="M329.562 247.859C329.482 247.4 329.317 246.961 329.075 246.563C329.223 246.503 329.371 246.44 329.519 246.373C329.634 246.86 329.648 247.366 329.562 247.859Z" fill="black"/>
<path opacity="0.1" d="M331.35 255.275C331.551 256.613 331.239 258.354 332.409 258.978C333.372 259.507 334.525 258.761 335.473 259.216C336.42 259.671 336.605 260.713 337.06 261.601C337.754 263.03 338.24 264.061 339.881 264.447C343.839 265.368 348.629 262.215 350.317 258.814C351.645 256.143 351.767 253.053 351.857 250.07C351.857 249.922 351.857 249.779 351.857 249.631C351.857 250.208 351.857 250.789 351.857 251.361C351.767 254.344 351.645 257.433 350.317 260.104C348.629 263.506 343.839 266.653 339.881 265.733C338.24 265.352 337.764 264.315 337.06 262.887C336.626 261.998 336.468 260.967 335.473 260.501C334.478 260.036 333.356 260.787 332.409 260.268C331.218 259.628 331.53 257.883 331.35 256.566C330.932 253.81 327.826 252.181 327.117 249.494C327.308 249.519 327.5 249.532 327.693 249.531C328.831 251.493 331.006 253.006 331.35 255.275Z" fill="black"/>
</g>
<path d="M124.596 407.953C123.139 407.168 121.57 406.613 119.944 406.308C121.124 406.144 122.289 405.882 123.426 405.526C126.448 404.568 127.972 403.288 126.829 402.659C125.686 402.029 122.304 402.294 119.283 403.251C118.262 403.547 117.287 403.979 116.382 404.536C116.07 403.875 115.224 403.108 113.895 402.378C111.212 400.902 107.603 400.162 105.835 400.717C104.068 401.273 104.814 402.923 107.502 404.42C108.815 405.125 110.218 405.647 111.673 405.97C110.707 406.088 109.749 406.265 108.804 406.499C105.518 407.287 103.613 408.482 104.571 409.144C105.529 409.805 108.947 409.741 112.239 408.953C113.436 408.692 114.595 408.282 115.689 407.731C115.959 408.414 116.822 409.228 118.219 409.995C120.902 411.466 124.511 412.212 126.279 411.656C128.046 411.101 127.279 409.424 124.596 407.953Z" fill="#6C63FF"/>
<path d="M85.17 357.11C84.2557 356.618 83.27 356.272 82.2488 356.084C82.9919 355.983 83.7248 355.818 84.4397 355.592C86.329 354.994 87.2868 354.19 86.5565 353.799C85.8262 353.407 83.7306 353.571 81.836 354.169C81.1991 354.354 80.5902 354.624 80.0262 354.973C79.6393 354.379 79.0876 353.91 78.4386 353.624C76.761 352.698 74.5013 352.233 73.3952 352.566C72.2892 352.899 72.7602 353.947 74.4536 354.873C75.287 355.315 76.1774 355.641 77.0997 355.84C76.4927 355.913 75.8902 356.019 75.2951 356.158C73.2365 356.65 72.0458 357.401 72.6491 357.824C73.2524 358.247 75.385 358.2 77.4436 357.708C78.1925 357.546 78.918 357.29 79.6028 356.946C79.9699 357.572 80.5255 358.067 81.1904 358.358C82.8733 359.284 85.133 359.75 86.239 359.416C87.345 359.083 86.8529 358.036 85.17 357.11Z" fill="#6C63FF"/>
<path d="M408.265 435.02C417.702 435.02 425.353 433.55 425.353 431.735C425.353 429.921 417.702 428.451 408.265 428.451C398.827 428.451 391.177 429.921 391.177 431.735C391.177 433.55 398.827 435.02 408.265 435.02Z" fill="#6C63FF"/>
<path d="M407.979 432.941C409.078 432.941 409.969 431.776 409.969 430.339C409.969 428.902 409.078 427.736 407.979 427.736C406.88 427.736 405.989 428.902 405.989 430.339C405.989 431.776 406.88 432.941 407.979 432.941Z" fill="#3F3D56"/>
<path d="M407.979 429.762C409.078 429.762 409.969 428.597 409.969 427.16C409.969 425.723 409.078 424.557 407.979 424.557C406.88 424.557 405.989 425.723 405.989 427.16C405.989 428.597 406.88 429.762 407.979 429.762Z" fill="#3F3D56"/>
<path d="M407.979 426.578C409.078 426.578 409.969 425.413 409.969 423.976C409.969 422.538 409.078 421.373 407.979 421.373C406.88 421.373 405.989 422.538 405.989 423.976C405.989 425.413 406.88 426.578 407.979 426.578Z" fill="#3F3D56"/>
<path d="M407.979 423.399C409.078 423.399 409.969 422.234 409.969 420.797C409.969 419.359 409.078 418.194 407.979 418.194C406.88 418.194 405.989 419.359 405.989 420.797C405.989 422.234 406.88 423.399 407.979 423.399Z" fill="#3F3D56"/>
<path d="M407.979 420.215C409.078 420.215 409.969 419.049 409.969 417.612C409.969 416.175 409.078 415.01 407.979 415.01C406.88 415.01 405.989 416.175 405.989 417.612C405.989 419.049 406.88 420.215 407.979 420.215Z" fill="#3F3D56"/>
<path d="M407.979 417.036C409.078 417.036 409.969 415.87 409.969 414.433C409.969 412.996 409.078 411.831 407.979 411.831C406.88 411.831 405.989 412.996 405.989 414.433C405.989 415.87 406.88 417.036 407.979 417.036Z" fill="#3F3D56"/>
<path d="M407.979 413.851C409.078 413.851 409.969 412.686 409.969 411.249C409.969 409.812 409.078 408.646 407.979 408.646C406.88 408.646 405.989 409.812 405.989 411.249C405.989 412.686 406.88 413.851 407.979 413.851Z" fill="#3F3D56"/>
<path d="M415.425 389.477C415.696 389.131 415.944 388.767 416.166 388.387L410.937 387.53L416.589 387.573C417.131 386.393 417.427 385.115 417.459 383.818C417.491 382.52 417.258 381.229 416.774 380.024L409.185 383.96L416.181 378.818C415.525 377.69 414.643 376.709 413.591 375.936C412.538 375.162 411.338 374.614 410.065 374.324C408.792 374.034 407.472 374.008 406.189 374.249C404.905 374.49 403.685 374.993 402.604 375.725C401.523 376.458 400.604 377.404 399.904 378.507C399.205 379.609 398.739 380.843 398.537 382.133C398.335 383.423 398.4 384.74 398.729 386.004C399.058 387.267 399.643 388.449 400.448 389.477C400.024 390.017 399.659 390.6 399.358 391.217L406.148 394.74L398.908 392.312C398.576 393.297 398.406 394.33 398.406 395.37C398.402 397.506 399.122 399.581 400.448 401.257C399.344 402.662 398.658 404.348 398.468 406.124C398.277 407.901 398.591 409.694 399.372 411.301C400.153 412.907 401.371 414.262 402.886 415.209C404.401 416.157 406.152 416.66 407.939 416.66C409.726 416.66 411.477 416.157 412.992 415.209C414.507 414.262 415.725 412.907 416.506 411.301C417.288 409.694 417.601 407.901 417.411 406.124C417.22 404.348 416.534 402.662 415.43 401.257C416.752 399.577 417.47 397.503 417.469 395.366C417.468 393.229 416.748 391.155 415.425 389.477V389.477Z" fill="#6C63FF"/>
<path opacity="0.1" d="M398.406 395.364C398.402 397.501 399.122 399.576 400.448 401.252C399.344 402.656 398.658 404.343 398.468 406.119C398.277 407.895 398.591 409.689 399.372 411.296C400.153 412.902 401.371 414.257 402.886 415.204C404.401 416.152 406.152 416.654 407.939 416.654C409.726 416.654 411.477 416.152 412.992 415.204C414.507 414.257 415.725 412.902 416.506 411.296C417.288 409.689 417.601 407.895 417.411 406.119C417.22 404.343 416.534 402.656 415.43 401.252C416.705 399.633 398.406 394.296 398.406 395.364Z" fill="black"/>
<defs>
<linearGradient id="paint0_linear" x1="339.04" y1="450.942" x2="339.04" y2="240.877" gradientUnits="userSpaceOnUse">
<stop stop-color="#808080" stop-opacity="0.25"/>
<stop offset="0.54" stop-color="#808080" stop-opacity="0.12"/>
<stop offset="1" stop-color="#808080" stop-opacity="0.1"/>
</linearGradient>
</defs>
</svg>
